<svg id="Composant_1_60" data-name="Composant 1 – 60" xmlns="http://www.w3.org/2000/svg" xmlns:xlink="http://www.w3.org/1999/xlink" width="397.313" height="63.902" viewBox="0 0 397.313 63.902">
  <defs>
    <clipPath id="clip-path">
      <rect id="Rectangle_24" data-name="Rectangle 24" width="397.313" height="63.902"/>
    </clipPath>
  </defs>
  <g id="Groupe_1" data-name="Groupe 1" clip-path="url(#clip-path)">
    <path id="Tracé_1" data-name="Tracé 1" d="M193.492,30.142V15.616h1.969v1.623a3.84,3.84,0,0,1,3.484-1.861c3.117,0,4.784,2.4,4.784,5.433,0,3.1-1.8,5.5-4.848,5.5a3.874,3.874,0,0,1-3.377-1.688v5.521Zm5.086-12.967c-1.861,0-3.1,1.559-3.1,3.636,0,2.144,1.234,3.68,3.1,3.68,1.883,0,3.074-1.536,3.074-3.68,0-2.077-1.169-3.636-3.074-3.636" transform="translate(24.604 1.955)"/>
    <path id="Tracé_2" data-name="Tracé 2" d="M214.855,20.821a5.328,5.328,0,1,1-10.648,0,5.328,5.328,0,1,1,10.648,0m-2.077,0c0-2.4-1.515-3.7-3.246-3.7s-3.246,1.3-3.246,3.7c0,2.425,1.515,3.723,3.246,3.723s3.246-1.3,3.246-3.723" transform="translate(25.967 1.946)"/>
    <path id="Tracé_3" data-name="Tracé 3" d="M219.758,26.326a3.85,3.85,0,0,1-3.9-4.178V15.589H217.9v6.257c0,1.428.649,2.684,2.359,2.684a2.353,2.353,0,0,0,2.467-2.662V15.589h2.033v8.486A17.652,17.652,0,0,0,224.866,26h-1.948a9.319,9.319,0,0,1-.086-1.256,3.4,3.4,0,0,1-3.074,1.58" transform="translate(27.449 1.982)"/>
    <path id="Tracé_4" data-name="Tracé 4" d="M232.7,17.666a6.427,6.427,0,0,0-.887-.065c-1.71,0-2.857.91-2.857,3.2v5.216h-2.035V15.608h1.992v1.819a3.26,3.26,0,0,1,3.117-1.992,3.735,3.735,0,0,1,.671.065Z" transform="translate(28.855 1.963)"/>
    <rect id="Rectangle_22" data-name="Rectangle 22" width="2.035" height="15.672" transform="translate(269.35 12.311)"/>
    <path id="Tracé_5" data-name="Tracé 5" d="M244.641,11.038a1.7,1.7,0,0,1,1.645,1.9c0,2.684-1.731,3.788-2.986,3.939V15.843a2.3,2.3,0,0,0,1.666-2.186.82.82,0,0,1-.433.108,1.312,1.312,0,0,1-1.364-1.385,1.409,1.409,0,0,1,1.472-1.342" transform="translate(30.921 1.404)"/>
    <path id="Tracé_6" data-name="Tracé 6" d="M249.382,20.086l2.815-.411c.627-.087.8-.411.8-.779,0-1.018-.671-1.862-2.251-1.862a2.209,2.209,0,0,0-2.359,2.1l-1.948-.455A4.016,4.016,0,0,1,250.7,15.3c3.117,0,4.328,1.775,4.328,3.811v5.216a9.849,9.849,0,0,0,.13,1.71h-1.991a7.551,7.551,0,0,1-.108-1.407,3.8,3.8,0,0,1-3.356,1.731,3.243,3.243,0,0,1-3.484-3.117c0-1.862,1.364-2.9,3.159-3.161M253,21.579V21.1l-3.182.477a1.557,1.557,0,0,0-1.515,1.559,1.579,1.579,0,0,0,1.688,1.515A2.73,2.73,0,0,0,253,21.579" transform="translate(31.31 1.946)"/>
    <path id="Tracé_7" data-name="Tracé 7" d="M262.717,17.666a6.428,6.428,0,0,0-.887-.065c-1.71,0-2.857.91-2.857,3.2v5.216h-2.035V15.608h1.992v1.819a3.26,3.26,0,0,1,3.117-1.992,3.735,3.735,0,0,1,.671.065Z" transform="translate(32.672 1.963)"/>
    <path id="Tracé_8" data-name="Tracé 8" d="M267.434,15.96h2.251V17.8h-2.251v5.411c0,.952.39,1.428,1.451,1.428a4.066,4.066,0,0,0,.8-.087v1.732a4.471,4.471,0,0,1-1.385.195,2.7,2.7,0,0,1-2.9-2.966V17.8h-1.991V15.96h.562a1.457,1.457,0,0,0,1.6-1.6V12.67h1.861Z" transform="translate(33.495 1.611)"/>
    <path id="Tracé_9" data-name="Tracé 9" d="M202.655,43.7a4.717,4.717,0,0,1-4.674,3.29,5.194,5.194,0,0,1-5.238-5.563,5.2,5.2,0,0,1,4.978-5.5c3.2,0,5,2.208,5,5.454a4.412,4.412,0,0,1-.044.649h-7.835a3.092,3.092,0,0,0,3.139,3.161,2.836,2.836,0,0,0,2.922-2.1ZM200.6,40.392a2.624,2.624,0,0,0-2.857-2.662,2.8,2.8,0,0,0-2.835,2.662Z" transform="translate(24.509 4.569)"/>
    <path id="Tracé_10" data-name="Tracé 10" d="M206.869,36.592h2.251v1.841h-2.251v5.411c0,.952.39,1.428,1.451,1.428a4.068,4.068,0,0,0,.8-.087v1.732a4.472,4.472,0,0,1-1.385.195,2.7,2.7,0,0,1-2.9-2.966V38.433h-1.991V36.592h.562a1.457,1.457,0,0,0,1.6-1.6V33.3h1.861Z" transform="translate(25.793 4.235)"/>
    <rect id="Rectangle_23" data-name="Rectangle 23" width="2.035" height="15.672" transform="translate(243.247 35.566)"/>
    <path id="Tracé_11" data-name="Tracé 11" d="M221.483,31.669a1.694,1.694,0,0,1,1.645,1.9c0,2.684-1.731,3.788-2.986,3.939V36.474a2.3,2.3,0,0,0,1.666-2.186.82.82,0,0,1-.433.108,1.313,1.313,0,0,1-1.364-1.386,1.409,1.409,0,0,1,1.472-1.341" transform="translate(27.976 4.027)"/>
    <path id="Tracé_12" data-name="Tracé 12" d="M232.8,43.7a4.72,4.72,0,0,1-4.675,3.29,5.194,5.194,0,0,1-5.238-5.563,5.2,5.2,0,0,1,4.978-5.5c3.2,0,5,2.208,5,5.454a4.258,4.258,0,0,1-.044.649H224.99a3.092,3.092,0,0,0,3.139,3.161,2.835,2.835,0,0,0,2.922-2.1Zm-2.057-3.312a2.623,2.623,0,0,0-2.857-2.662,2.8,2.8,0,0,0-2.835,2.662Z" transform="translate(28.343 4.569)"/>
    <path id="Tracé_13" data-name="Tracé 13" d="M236.179,46.667h-2.035V36.254h1.992v1.495a3.562,3.562,0,0,1,3.2-1.8c2.49,0,3.723,1.8,3.723,4.113v6.6h-2.034V40.411c0-1.451-.605-2.62-2.423-2.62-1.6,0-2.425,1.277-2.425,2.857Z" transform="translate(29.774 4.572)"/>
    <path id="Tracé_14" data-name="Tracé 14" d="M249.964,46.633h-2.056l-4.22-10.413h2.294l2.966,8.032,2.986-8.032h2.187Z" transform="translate(30.987 4.606)"/>
    <path id="Tracé_15" data-name="Tracé 15" d="M255.815,31.419a1.461,1.461,0,1,1-1.45,1.472,1.46,1.46,0,0,1,1.45-1.472m-1,5.411h2.013V47.243h-2.013Z" transform="translate(32.345 3.995)"/>
    <path id="Tracé_16" data-name="Tracé 16" d="M265.5,38.3a6.427,6.427,0,0,0-.887-.065c-1.71,0-2.857.91-2.857,3.2v5.216h-2.035V36.239h1.992v1.819a3.26,3.26,0,0,1,3.117-1.992,3.734,3.734,0,0,1,.671.065Z" transform="translate(33.026 4.586)"/>
    <path id="Tracé_17" data-name="Tracé 17" d="M276.649,41.453a5.328,5.328,0,1,1-10.648,0,5.328,5.328,0,1,1,10.648,0m-2.077,0c0-2.4-1.515-3.7-3.246-3.7s-3.246,1.3-3.246,3.7c0,2.425,1.515,3.723,3.246,3.723s3.246-1.3,3.246-3.723" transform="translate(33.824 4.569)"/>
    <path id="Tracé_18" data-name="Tracé 18" d="M279.885,46.667H277.85V36.254h1.992v1.495a3.563,3.563,0,0,1,3.2-1.8c2.49,0,3.722,1.8,3.722,4.113v6.6h-2.033V40.411c0-1.451-.605-2.62-2.423-2.62-1.6,0-2.425,1.277-2.425,2.857Z" transform="translate(35.331 4.572)"/>
    <path id="Tracé_19" data-name="Tracé 19" d="M290.773,46.667h-2.035V36.254h1.992v1.495a3.562,3.562,0,0,1,3.2-1.8c2.49,0,3.722,1.8,3.722,4.113v6.6H295.62V40.411c0-1.451-.605-2.62-2.423-2.62-1.6,0-2.424,1.277-2.424,2.857Z" transform="translate(36.716 4.572)"/>
    <path id="Tracé_20" data-name="Tracé 20" d="M308.789,43.7a4.717,4.717,0,0,1-4.674,3.29,5.194,5.194,0,0,1-5.238-5.563,5.2,5.2,0,0,1,4.978-5.5c3.2,0,5,2.208,5,5.454a4.412,4.412,0,0,1-.044.649h-7.835a3.092,3.092,0,0,0,3.139,3.161,2.836,2.836,0,0,0,2.922-2.1Zm-2.056-3.312a2.624,2.624,0,0,0-2.857-2.662,2.8,2.8,0,0,0-2.835,2.662Z" transform="translate(38.005 4.569)"/>
    <path id="Tracé_21" data-name="Tracé 21" d="M310.129,46.667V36.254h1.948V37.64a3.589,3.589,0,0,1,3.161-1.688,3.253,3.253,0,0,1,3.117,1.969,3.735,3.735,0,0,1,3.484-1.969c1.818,0,3.592,1.233,3.592,3.961v6.754h-2.012V40.129a2.1,2.1,0,0,0-2.208-2.381,2.426,2.426,0,0,0-2.4,2.618v6.3h-2.035V40.129a2.1,2.1,0,0,0-2.208-2.381,2.414,2.414,0,0,0-2.423,2.641v6.277Z" transform="translate(39.436 4.572)"/>
    <path id="Tracé_22" data-name="Tracé 22" d="M335.846,43.7a4.717,4.717,0,0,1-4.674,3.29,5.194,5.194,0,0,1-5.238-5.563,5.2,5.2,0,0,1,4.978-5.5c3.2,0,5,2.208,5,5.454a4.416,4.416,0,0,1-.044.649h-7.835a3.092,3.092,0,0,0,3.139,3.161,2.836,2.836,0,0,0,2.922-2.1Zm-2.056-3.312a2.623,2.623,0,0,0-2.857-2.662,2.8,2.8,0,0,0-2.835,2.662Z" transform="translate(41.445 4.569)"/>
    <path id="Tracé_23" data-name="Tracé 23" d="M339.221,46.667h-2.034V36.254h1.992v1.495a3.562,3.562,0,0,1,3.2-1.8c2.49,0,3.723,1.8,3.723,4.113v6.6h-2.035V40.411c0-1.451-.605-2.62-2.423-2.62-1.6,0-2.425,1.277-2.425,2.857Z" transform="translate(42.876 4.572)"/>
    <path id="Tracé_24" data-name="Tracé 24" d="M350.948,36.592H353.2v1.841h-2.251v5.411c0,.952.39,1.428,1.451,1.428a4.067,4.067,0,0,0,.8-.087v1.732a4.472,4.472,0,0,1-1.385.195,2.7,2.7,0,0,1-2.9-2.966V38.433h-1.991V36.592h.562a1.457,1.457,0,0,0,1.6-1.6V33.3h1.861Z" transform="translate(44.114 4.235)"/>
    <path id="Tracé_25" data-name="Tracé 25" d="M79.8,26.558V11.21h9.328v1.97H81.925v4.935H88.46v1.992H81.925v6.451Z" transform="translate(10.148 1.425)"/>
    <path id="Tracé_26" data-name="Tracé 26" d="M99.5,20.821a5.328,5.328,0,1,1-10.648,0,5.328,5.328,0,1,1,10.648,0m-2.077,0c0-2.4-1.515-3.7-3.246-3.7s-3.246,1.3-3.246,3.7c0,2.425,1.515,3.723,3.246,3.723s3.246-1.3,3.246-3.723" transform="translate(11.298 1.946)"/>
    <path id="Tracé_27" data-name="Tracé 27" d="M102.731,26.035H100.7V15.622h1.992v1.495a3.562,3.562,0,0,1,3.2-1.8c2.49,0,3.723,1.8,3.723,4.113v6.6h-2.035V19.779c0-1.451-.605-2.62-2.423-2.62-1.6,0-2.425,1.277-2.425,2.857Z" transform="translate(12.804 1.948)"/>
    <path id="Tracé_28" data-name="Tracé 28" d="M118.975,25.014a3.485,3.485,0,0,1-3.225,1.862c-3.051,0-4.935-2.425-4.935-5.52,0-2.944,1.992-5.455,4.935-5.455a3.2,3.2,0,0,1,3.182,1.754V10.922h2.012V24.668a16.518,16.518,0,0,0,.108,1.926h-1.969a8.765,8.765,0,0,1-.108-1.407Zm-3.03.065c1.861,0,3.008-1.623,3.008-3.767s-1.126-3.615-2.987-3.615-3.073,1.516-3.073,3.659,1.1,3.723,3.051,3.723" transform="translate(14.091 1.389)"/>
    <path id="Tracé_29" data-name="Tracé 29" d="M125.554,20.085l2.815-.411c.627-.087.8-.411.8-.779,0-1.018-.671-1.862-2.251-1.862a2.209,2.209,0,0,0-2.359,2.1l-1.948-.455a4.015,4.015,0,0,1,4.264-3.376c3.117,0,4.328,1.774,4.328,3.81v5.216a9.854,9.854,0,0,0,.13,1.71h-1.991a7.548,7.548,0,0,1-.108-1.407,3.8,3.8,0,0,1-3.356,1.731,3.243,3.243,0,0,1-3.484-3.117c0-1.862,1.364-2.9,3.159-3.161m3.615,1.493V21.1l-3.182.477a1.557,1.557,0,0,0-1.515,1.559,1.579,1.579,0,0,0,1.688,1.515,2.73,2.73,0,0,0,3.008-3.074" transform="translate(15.564 1.946)"/>
    <path id="Tracé_30" data-name="Tracé 30" d="M135.984,15.96h2.251V17.8h-2.251v5.411c0,.952.39,1.428,1.451,1.428a4.067,4.067,0,0,0,.8-.087v1.732a4.472,4.472,0,0,1-1.385.195,2.7,2.7,0,0,1-2.9-2.966V17.8h-1.991V15.96h.562a1.457,1.457,0,0,0,1.6-1.6V12.67h1.861Z" transform="translate(16.78 1.611)"/>
    <path id="Tracé_31" data-name="Tracé 31" d="M141.071,10.788a1.461,1.461,0,1,1-1.451,1.472,1.459,1.459,0,0,1,1.451-1.472m-1,5.411h2.013V26.612h-2.013Z" transform="translate(17.754 1.372)"/>
    <path id="Tracé_32" data-name="Tracé 32" d="M154.857,20.821a5.328,5.328,0,1,1-10.648,0,5.328,5.328,0,1,1,10.648,0m-2.077,0c0-2.4-1.515-3.7-3.246-3.7s-3.246,1.3-3.246,3.7c0,2.425,1.515,3.723,3.246,3.723s3.246-1.3,3.246-3.723" transform="translate(18.338 1.946)"/>
    <path id="Tracé_33" data-name="Tracé 33" d="M158.092,26.035h-2.035V15.622h1.992v1.495a3.562,3.562,0,0,1,3.2-1.8c2.49,0,3.723,1.8,3.723,4.113v6.6h-2.035V19.779c0-1.451-.605-2.62-2.423-2.62-1.6,0-2.425,1.277-2.425,2.857Z" transform="translate(19.844 1.948)"/>
    <path id="Tracé_34" data-name="Tracé 34" d="M91.492,47.226,91.3,45.062a5.461,5.461,0,0,1-4.913,2.489c-3.852,0-7.445-2.815-7.445-8.01a7.563,7.563,0,0,1,7.6-7.987,6.826,6.826,0,0,1,6.8,4.633l-1.926.822A4.841,4.841,0,0,0,86.536,33.5c-2.749,0-5.433,1.97-5.433,6.039s2.6,6.083,5.346,6.083a4.359,4.359,0,0,0,4.74-4H85.865v-1.9H93.2v7.511Z" transform="translate(10.038 4.012)"/>
    <path id="Tracé_35" data-name="Tracé 35" d="M100.176,38.3a6.427,6.427,0,0,0-.887-.065c-1.71,0-2.857.91-2.857,3.2v5.216H94.4V36.239h1.992v1.819a3.26,3.26,0,0,1,3.117-1.992,3.734,3.734,0,0,1,.671.065Z" transform="translate(12.003 4.586)"/>
    <path id="Tracé_36" data-name="Tracé 36" d="M104.124,40.717l2.815-.411c.627-.087.8-.411.8-.779,0-1.018-.671-1.862-2.251-1.862a2.209,2.209,0,0,0-2.359,2.1l-1.948-.455a4.016,4.016,0,0,1,4.264-3.377c3.117,0,4.328,1.775,4.328,3.811v5.216a9.854,9.854,0,0,0,.13,1.71h-1.991a7.548,7.548,0,0,1-.108-1.407,3.8,3.8,0,0,1-3.356,1.731,3.243,3.243,0,0,1-3.484-3.117c0-1.862,1.364-2.9,3.159-3.161m3.615,1.493v-.477l-3.182.477a1.557,1.557,0,0,0-1.515,1.559,1.579,1.579,0,0,0,1.688,1.515,2.73,2.73,0,0,0,3.008-3.074" transform="translate(12.839 4.569)"/>
    <path id="Tracé_37" data-name="Tracé 37" d="M113.715,46.667H111.68V36.254h1.992v1.495a3.563,3.563,0,0,1,3.2-1.8c2.49,0,3.723,1.8,3.723,4.113v6.6h-2.035V40.411c0-1.451-.605-2.62-2.423-2.62-1.6,0-2.425,1.277-2.425,2.857Z" transform="translate(14.201 4.572)"/>
    <path id="Tracé_38" data-name="Tracé 38" d="M125.441,36.591h2.251v1.841h-2.251v5.411c0,.952.39,1.428,1.451,1.428a4.067,4.067,0,0,0,.8-.087v1.732a4.472,4.472,0,0,1-1.385.195,2.7,2.7,0,0,1-2.9-2.966V38.432h-1.991V36.591h.562a1.457,1.457,0,0,0,1.6-1.6V33.3h1.861Z" transform="translate(15.439 4.235)"/>
    <path id="Tracé_39" data-name="Tracé 39" d="M131.516,47.226h-2.035V31.554h2.035v6.472a3.682,3.682,0,0,1,3.159-1.515c2.49,0,3.723,1.8,3.723,4.113v6.6h-2.035V40.97c0-1.451-.605-2.62-2.423-2.62-1.559,0-2.382,1.213-2.425,2.749Z" transform="translate(16.465 4.012)"/>
    <path id="Tracé_40" data-name="Tracé 40" d="M142.952,40.717l2.815-.411c.627-.087.8-.411.8-.779,0-1.018-.671-1.862-2.251-1.862a2.209,2.209,0,0,0-2.359,2.1l-1.948-.455a4.016,4.016,0,0,1,4.264-3.377c3.117,0,4.328,1.775,4.328,3.811v5.216a9.85,9.85,0,0,0,.13,1.71h-1.991a7.547,7.547,0,0,1-.108-1.407,3.8,3.8,0,0,1-3.356,1.731,3.243,3.243,0,0,1-3.484-3.117c0-1.862,1.364-2.9,3.159-3.161m3.615,1.493v-.477l-3.182.477a1.557,1.557,0,0,0-1.515,1.559,1.579,1.579,0,0,0,1.688,1.515,2.73,2.73,0,0,0,3.008-3.074" transform="translate(17.776 4.569)"/>
    <path id="Tracé_41" data-name="Tracé 41" d="M150.508,46.667V36.254h1.948V37.64a3.589,3.589,0,0,1,3.161-1.688,3.253,3.253,0,0,1,3.117,1.969,3.735,3.735,0,0,1,3.484-1.969c1.818,0,3.592,1.233,3.592,3.961v6.754H163.8V40.129a2.1,2.1,0,0,0-2.208-2.381,2.427,2.427,0,0,0-2.4,2.618v6.3h-2.035V40.129a2.1,2.1,0,0,0-2.208-2.381,2.414,2.414,0,0,0-2.423,2.641v6.277Z" transform="translate(19.138 4.572)"/>
    <path id="Tracé_42" data-name="Tracé 42" d="M56.687,48.16l.007.039h-.007Z" transform="translate(7.208 6.124)"/>
    <path id="Tracé_43" data-name="Tracé 43" d="M51.952,52.556V21.306l5.337,30.269v.041Z" transform="translate(6.606 2.709)"/>
    <path id="Tracé_44" data-name="Tracé 44" d="M45.441,56.56V.548L48.545,0l2.233,12.665V55.618Z" transform="translate(5.778 0)"/>
    <path id="Tracé_45" data-name="Tracé 45" d="M44.268,45.475V51.13l-5.337.941v-6.6Z" transform="translate(4.95 5.783)"/>
    <path id="Tracé_46" data-name="Tracé 46" d="M38.93,12.543V1.74L44.267.8V12.543Z" transform="translate(4.95 0.102)"/>
    <path id="Tracé_47" data-name="Tracé 47" d="M37.757,45.475v6.949l-5.337.941v-7.89Z" transform="translate(4.122 5.783)"/>
    <path id="Tracé_48" data-name="Tracé 48" d="M32.42,12.4V2.888l5.337-.941V12.4Z" transform="translate(4.122 0.248)"/>
    <path id="Tracé_49" data-name="Tracé 49" d="M25.909,12.251V4.036L31.246,3.1v9.156Z" transform="translate(3.295 0.394)"/>
    <path id="Tracé_50" data-name="Tracé 50" d="M31.246,45.475v8.243l-5.337.941V45.475Z" transform="translate(3.295 5.783)"/>
    <path id="Tracé_51" data-name="Tracé 51" d="M24.735,45.475v9.537l-5.337.941V45.475Z" transform="translate(2.467 5.783)"/>
    <path id="Tracé_52" data-name="Tracé 52" d="M19.4,12.1V5.184l5.337-.941V12.1Z" transform="translate(2.467 0.54)"/>
    <path id="Tracé_53" data-name="Tracé 53" d="M12.887,11.959V6.332l5.337-.941v6.568Z" transform="translate(1.639 0.686)"/>
    <path id="Tracé_54" data-name="Tracé 54" d="M18.224,45.475V56.306l-5.337.941V45.475Z" transform="translate(1.639 5.783)"/>
    <path id="Tracé_55" data-name="Tracé 55" d="M8.768,63.071,6.376,49.509V7.48l5.338-.941V62.551Z" transform="translate(0.811 0.831)"/>
    <path id="Tracé_56" data-name="Tracé 56" d="M0,8.6l5.186-.914V38.012Z" transform="translate(0 0.977)"/>
  </g>
</svg>
